<?xml version="1.0" encoding="UTF-8" standalone="no"?>
<!DOCTYPE svg PUBLIC "-//W3C//DTD SVG 1.1//EN"
 "http://www.w3.org/Graphics/SVG/1.1/DTD/svg11.dtd">
<!-- Generated by graphviz version 14.0.2 (20251019.1705)
 -->
<!-- Title: PatternTree Pages: 1 -->
<svg width="810pt" height="369pt"
 viewBox="0.00 0.00 810.00 369.00" xmlns="http://www.w3.org/2000/svg" xmlns:xlink="http://www.w3.org/1999/xlink">
<g id="graph0" class="graph" transform="scale(1 1) rotate(0) translate(4 365)">
<title>PatternTree</title>
<polygon fill="white" stroke="none" points="-4,4 -4,-365 806,-365 806,4 -4,4"/>
<!-- n0 -->
<g id="node1" class="node">
<title>n0</title>
<path fill="#f8f8ff" stroke="black" d="M270.75,-361C270.75,-361 205.25,-361 205.25,-361 199.25,-361 193.25,-355 193.25,-349 193.25,-349 193.25,-337 193.25,-337 193.25,-331 199.25,-325 205.25,-325 205.25,-325 270.75,-325 270.75,-325 276.75,-325 282.75,-331 282.75,-337 282.75,-337 282.75,-349 282.75,-349 282.75,-355 276.75,-361 270.75,-361"/>
<text xml:space="preserve" text-anchor="middle" x="238" y="-344.75" font-family="Times,serif" font-size="10.00">cp_playable_term</text>
<text xml:space="preserve" text-anchor="middle" x="238" y="-333.5" font-family="Times,serif" font-size="10.00">[2]</text>
</g>
<!-- n1 -->
<g id="node2" class="node">
<title>n1</title>
<path fill="#f8f8ff" stroke="black" d="M207.5,-296C207.5,-296 176.5,-296 176.5,-296 170.5,-296 164.5,-290 164.5,-284 164.5,-284 164.5,-272 164.5,-272 164.5,-266 170.5,-260 176.5,-260 176.5,-260 207.5,-260 207.5,-260 213.5,-260 219.5,-266 219.5,-272 219.5,-272 219.5,-284 219.5,-284 219.5,-290 213.5,-296 207.5,-296"/>
<text xml:space="preserve" text-anchor="middle" x="192" y="-279.75" font-family="Times,serif" font-size="10.00">prefix_cp</text>
<text xml:space="preserve" text-anchor="middle" x="192" y="-268.5" font-family="Times,serif" font-size="10.00">[2]</text>
</g>
<!-- n0&#45;&gt;n1 -->
<g id="edge1" class="edge">
<title>n0&#45;&gt;n1</title>
<path fill="none" stroke="black" d="M225.43,-324.78C221.07,-318.81 216.07,-311.97 211.3,-305.43"/>
<polygon fill="black" stroke="black" points="214.17,-303.43 205.45,-297.42 208.52,-307.56 214.17,-303.43"/>
</g>
<!-- n4 -->
<g id="node5" class="node">
<title>n4</title>
<path fill="#f8f8ff" stroke="black" d="M316,-296C316,-296 252,-296 252,-296 246,-296 240,-290 240,-284 240,-284 240,-272 240,-272 240,-266 246,-260 252,-260 252,-260 316,-260 316,-260 322,-260 328,-266 328,-272 328,-272 328,-284 328,-284 328,-290 322,-296 316,-296"/>
<text xml:space="preserve" text-anchor="middle" x="284" y="-279.75" font-family="Times,serif" font-size="10.00">cp_lists_playable</text>
<text xml:space="preserve" text-anchor="middle" x="284" y="-268.5" font-family="Times,serif" font-size="10.00">[2]</text>
</g>
<!-- n0&#45;&gt;n4 -->
<g id="edge4" class="edge">
<title>n0&#45;&gt;n4</title>
<path fill="none" stroke="black" d="M250.57,-324.78C254.93,-318.81 259.93,-311.97 264.7,-305.43"/>
<polygon fill="black" stroke="black" points="267.48,-307.56 270.55,-297.42 261.83,-303.43 267.48,-307.56"/>
</g>
<!-- n2 -->
<g id="node3" class="node">
<title>n2</title>
<path fill="#f8f8ff" stroke="black" d="M115,-231C115,-231 85,-231 85,-231 79,-231 73,-225 73,-219 73,-219 73,-207 73,-207 73,-201 79,-195 85,-195 85,-195 115,-195 115,-195 121,-195 127,-201 127,-207 127,-207 127,-219 127,-219 127,-225 121,-231 115,-231"/>
<text xml:space="preserve" text-anchor="middle" x="100" y="-214.75" font-family="Times,serif" font-size="10.00">FAST</text>
<text xml:space="preserve" text-anchor="middle" x="100" y="-203.5" font-family="Times,serif" font-size="10.00">fast</text>
</g>
<!-- n1&#45;&gt;n2 -->
<g id="edge2" class="edge">
<title>n1&#45;&gt;n2</title>
<path fill="none" stroke="black" d="M166.86,-259.78C157,-253.03 145.52,-245.17 134.89,-237.89"/>
<polygon fill="black" stroke="black" points="136.91,-235.03 126.68,-232.27 132.95,-240.81 136.91,-235.03"/>
</g>
<!-- n3 -->
<g id="node4" class="node">
<title>n3</title>
<path fill="#f8f8ff" stroke="black" d="M227.38,-231C227.38,-231 156.62,-231 156.62,-231 150.62,-231 144.62,-225 144.62,-219 144.62,-219 144.62,-207 144.62,-207 144.62,-201 150.62,-195 156.62,-195 156.62,-195 227.38,-195 227.38,-195 233.38,-195 239.38,-201 239.38,-207 239.38,-207 239.38,-219 239.38,-219 239.38,-225 233.38,-231 227.38,-231"/>
<text xml:space="preserve" text-anchor="middle" x="192" y="-214.75" font-family="Times,serif" font-size="10.00">pattern_time__INT</text>
<text xml:space="preserve" text-anchor="middle" x="192" y="-203.5" font-family="Times,serif" font-size="10.00">2</text>
</g>
<!-- n1&#45;&gt;n3 -->
<g id="edge3" class="edge">
<title>n1&#45;&gt;n3</title>
<path fill="none" stroke="black" d="M192,-259.78C192,-254.37 192,-248.24 192,-242.26"/>
<polygon fill="black" stroke="black" points="195.5,-242.71 192,-232.71 188.5,-242.71 195.5,-242.71"/>
</g>
<!-- n5 -->
<g id="node6" class="node">
<title>n5</title>
<path fill="#f8f8ff" stroke="black" d="M299,-231C299,-231 269,-231 269,-231 263,-231 257,-225 257,-219 257,-219 257,-207 257,-207 257,-201 263,-195 269,-195 269,-195 299,-195 299,-195 305,-195 311,-201 311,-207 311,-207 311,-219 311,-219 311,-225 305,-231 299,-231"/>
<text xml:space="preserve" text-anchor="middle" x="284" y="-214.75" font-family="Times,serif" font-size="10.00">STACK</text>
<text xml:space="preserve" text-anchor="middle" x="284" y="-203.5" font-family="Times,serif" font-size="10.00">stack</text>
</g>
<!-- n4&#45;&gt;n5 -->
<g id="edge5" class="edge">
<title>n4&#45;&gt;n5</title>
<path fill="none" stroke="black" d="M284,-259.78C284,-254.37 284,-248.24 284,-242.26"/>
<polygon fill="black" stroke="black" points="287.5,-242.71 284,-232.71 280.5,-242.71 287.5,-242.71"/>
</g>
<!-- n6 -->
<g id="node7" class="node">
<title>n6</title>
<path fill="#f8f8ff" stroke="black" d="M401.12,-231C401.12,-231 340.88,-231 340.88,-231 334.88,-231 328.88,-225 328.88,-219 328.88,-219 328.88,-207 328.88,-207 328.88,-201 334.88,-195 340.88,-195 340.88,-195 401.12,-195 401.12,-195 407.12,-195 413.12,-201 413.12,-207 413.12,-207 413.12,-219 413.12,-219 413.12,-225 407.12,-231 401.12,-231"/>
<text xml:space="preserve" text-anchor="middle" x="371" y="-214.75" font-family="Times,serif" font-size="10.00">cp_list_playable</text>
<text xml:space="preserve" text-anchor="middle" x="371" y="-203.5" font-family="Times,serif" font-size="10.00">[2]</text>
</g>
<!-- n4&#45;&gt;n6 -->
<g id="edge6" class="edge">
<title>n4&#45;&gt;n6</title>
<path fill="none" stroke="black" d="M307.77,-259.78C317,-253.1 327.73,-245.33 337.7,-238.11"/>
<polygon fill="black" stroke="black" points="339.68,-241 345.73,-232.3 335.58,-235.33 339.68,-241"/>
</g>
<!-- n7 -->
<g id="node8" class="node">
<title>n7</title>
<path fill="#f8f8ff" stroke="black" d="M260.62,-166C260.62,-166 203.38,-166 203.38,-166 197.38,-166 191.38,-160 191.38,-154 191.38,-154 191.38,-142 191.38,-142 191.38,-136 197.38,-130 203.38,-130 203.38,-130 260.62,-130 260.62,-130 266.62,-130 272.62,-136 272.62,-142 272.62,-142 272.62,-154 272.62,-154 272.62,-160 266.62,-166 260.62,-166"/>
<text xml:space="preserve" text-anchor="middle" x="232" y="-149.75" font-family="Times,serif" font-size="10.00">cp_sound_atom</text>
<text xml:space="preserve" text-anchor="middle" x="232" y="-138.5" font-family="Times,serif" font-size="10.00">[4]</text>
</g>
<!-- n6&#45;&gt;n7 -->
<g id="edge7" class="edge">
<title>n6&#45;&gt;n7</title>
<path fill="none" stroke="black" d="M332.65,-194.62C316.55,-187.32 297.63,-178.75 280.57,-171.01"/>
<polygon fill="black" stroke="black" points="282.16,-167.89 271.6,-166.95 279.27,-174.27 282.16,-167.89"/>
</g>
<!-- n13 -->
<g id="node14" class="node">
<title>n13</title>
<path fill="#f8f8ff" stroke="black" d="M537.62,-166C537.62,-166 480.38,-166 480.38,-166 474.38,-166 468.38,-160 468.38,-154 468.38,-154 468.38,-142 468.38,-142 468.38,-136 474.38,-130 480.38,-130 480.38,-130 537.62,-130 537.62,-130 543.62,-130 549.62,-136 549.62,-142 549.62,-142 549.62,-154 549.62,-154 549.62,-160 543.62,-166 537.62,-166"/>
<text xml:space="preserve" text-anchor="middle" x="509" y="-149.75" font-family="Times,serif" font-size="10.00">cp_sound_atom</text>
<text xml:space="preserve" text-anchor="middle" x="509" y="-138.5" font-family="Times,serif" font-size="10.00">[4]</text>
</g>
<!-- n6&#45;&gt;n13 -->
<g id="edge13" class="edge">
<title>n6&#45;&gt;n13</title>
<path fill="none" stroke="black" d="M409.07,-194.62C425.06,-187.32 443.84,-178.75 460.78,-171.01"/>
<polygon fill="black" stroke="black" points="462.03,-174.29 469.67,-166.95 459.12,-167.92 462.03,-174.29"/>
</g>
<!-- n8 -->
<g id="node9" class="node">
<title>n8</title>
<path fill="#f8f8ff" stroke="black" d="M42,-101C42,-101 12,-101 12,-101 6,-101 0,-95 0,-89 0,-89 0,-77 0,-77 0,-71 6,-65 12,-65 12,-65 42,-65 42,-65 48,-65 54,-71 54,-77 54,-77 54,-89 54,-89 54,-95 48,-101 42,-101"/>
<text xml:space="preserve" text-anchor="middle" x="27" y="-84.75" font-family="Times,serif" font-size="10.00">S</text>
<text xml:space="preserve" text-anchor="middle" x="27" y="-73.5" font-family="Times,serif" font-size="10.00">s</text>
</g>
<!-- n7&#45;&gt;n8 -->
<g id="edge8" class="edge">
<title>n7&#45;&gt;n8</title>
<path fill="none" stroke="black" d="M191.08,-137.99C158.83,-130.42 112.64,-118.55 64.85,-101.37"/>
<polygon fill="black" stroke="black" points="66.32,-98.18 55.73,-98.02 63.91,-104.75 66.32,-98.18"/>
</g>
<!-- n9 -->
<g id="node10" class="node">
<title>n9</title>
<path fill="#f8f8ff" stroke="black" d="M114,-101C114,-101 84,-101 84,-101 78,-101 72,-95 72,-89 72,-89 72,-77 72,-77 72,-71 78,-65 84,-65 84,-65 114,-65 114,-65 120,-65 126,-71 126,-77 126,-77 126,-89 126,-89 126,-95 120,-101 114,-101"/>
<text xml:space="preserve" text-anchor="middle" x="99" y="-84.75" font-family="Times,serif" font-size="10.00">LPAR</text>
<text xml:space="preserve" text-anchor="middle" x="99" y="-73.5" font-family="Times,serif" font-size="10.00">(</text>
</g>
<!-- n7&#45;&gt;n9 -->
<g id="edge9" class="edge">
<title>n7&#45;&gt;n9</title>
<path fill="none" stroke="black" d="M195.31,-129.62C177.05,-120.97 155.02,-110.54 136.64,-101.83"/>
<polygon fill="black" stroke="black" points="138.2,-98.69 127.66,-97.58 135.2,-105.02 138.2,-98.69"/>
</g>
<!-- n10 -->
<g id="node11" class="node">
<title>n10</title>
<path fill="#f8f8ff" stroke="black" d="M307.5,-101C307.5,-101 156.5,-101 156.5,-101 150.5,-101 144.5,-95 144.5,-89 144.5,-89 144.5,-77 144.5,-77 144.5,-71 150.5,-65 156.5,-65 156.5,-65 307.5,-65 307.5,-65 313.5,-65 319.5,-71 319.5,-77 319.5,-77 319.5,-89 319.5,-89 319.5,-95 313.5,-101 307.5,-101"/>
<text xml:space="preserve" text-anchor="middle" x="232" y="-84.75" font-family="Times,serif" font-size="10.00">pattern_string_sample__sample_literal</text>
<text xml:space="preserve" text-anchor="middle" x="232" y="-73.5" font-family="Times,serif" font-size="10.00">[1]</text>
</g>
<!-- n7&#45;&gt;n10 -->
<g id="edge10" class="edge">
<title>n7&#45;&gt;n10</title>
<path fill="none" stroke="black" d="M232,-129.78C232,-124.37 232,-118.24 232,-112.26"/>
<polygon fill="black" stroke="black" points="235.5,-112.71 232,-102.71 228.5,-112.71 235.5,-112.71"/>
</g>
<!-- n12 -->
<g id="node13" class="node">
<title>n12</title>
<path fill="#f8f8ff" stroke="black" d="M380,-101C380,-101 350,-101 350,-101 344,-101 338,-95 338,-89 338,-89 338,-77 338,-77 338,-71 344,-65 350,-65 350,-65 380,-65 380,-65 386,-65 392,-71 392,-77 392,-77 392,-89 392,-89 392,-95 386,-101 380,-101"/>
<text xml:space="preserve" text-anchor="middle" x="365" y="-84.75" font-family="Times,serif" font-size="10.00">RPAR</text>
<text xml:space="preserve" text-anchor="middle" x="365" y="-73.5" font-family="Times,serif" font-size="10.00">)</text>
</g>
<!-- n7&#45;&gt;n12 -->
<g id="edge12" class="edge">
<title>n7&#45;&gt;n12</title>
<path fill="none" stroke="black" d="M268.69,-129.62C286.95,-120.97 308.98,-110.54 327.36,-101.83"/>
<polygon fill="black" stroke="black" points="328.8,-105.02 336.34,-97.58 325.8,-98.69 328.8,-105.02"/>
</g>
<!-- n11 -->
<g id="node12" class="node">
<title>n11</title>
<path fill="#f8f8ff" stroke="black" d="M318.75,-36C318.75,-36 145.25,-36 145.25,-36 139.25,-36 133.25,-30 133.25,-24 133.25,-24 133.25,-12 133.25,-12 133.25,-6 139.25,0 145.25,0 145.25,0 318.75,0 318.75,0 324.75,0 330.75,-6 330.75,-12 330.75,-12 330.75,-24 330.75,-24 330.75,-30 324.75,-36 318.75,-36"/>
<text xml:space="preserve" text-anchor="middle" x="232" y="-19.75" font-family="Times,serif" font-size="10.00">pattern_string_sample__SAMPLE_STRING</text>
<text xml:space="preserve" text-anchor="middle" x="232" y="-8.5" font-family="Times,serif" font-size="10.00">&quot;bd&quot;</text>
</g>
<!-- n10&#45;&gt;n11 -->
<g id="edge11" class="edge">
<title>n10&#45;&gt;n11</title>
<path fill="none" stroke="black" d="M232,-64.78C232,-59.37 232,-53.24 232,-47.26"/>
<polygon fill="black" stroke="black" points="235.5,-47.71 232,-37.71 228.5,-47.71 235.5,-47.71"/>
</g>
<!-- n14 -->
<g id="node15" class="node">
<title>n14</title>
<path fill="#f8f8ff" stroke="black" d="M452,-101C452,-101 422,-101 422,-101 416,-101 410,-95 410,-89 410,-89 410,-77 410,-77 410,-71 416,-65 422,-65 422,-65 452,-65 452,-65 458,-65 464,-71 464,-77 464,-77 464,-89 464,-89 464,-95 458,-101 452,-101"/>
<text xml:space="preserve" text-anchor="middle" x="437" y="-84.75" font-family="Times,serif" font-size="10.00">S</text>
<text xml:space="preserve" text-anchor="middle" x="437" y="-73.5" font-family="Times,serif" font-size="10.00">s</text>
</g>
<!-- n13&#45;&gt;n14 -->
<g id="edge14" class="edge">
<title>n13&#45;&gt;n14</title>
<path fill="none" stroke="black" d="M489.33,-129.78C481.86,-123.26 473.22,-115.69 465.13,-108.61"/>
<polygon fill="black" stroke="black" points="467.62,-106.14 457.79,-102.19 463.01,-111.41 467.62,-106.14"/>
</g>
<!-- n15 -->
<g id="node16" class="node">
<title>n15</title>
<path fill="#f8f8ff" stroke="black" d="M524,-101C524,-101 494,-101 494,-101 488,-101 482,-95 482,-89 482,-89 482,-77 482,-77 482,-71 488,-65 494,-65 494,-65 524,-65 524,-65 530,-65 536,-71 536,-77 536,-77 536,-89 536,-89 536,-95 530,-101 524,-101"/>
<text xml:space="preserve" text-anchor="middle" x="509" y="-84.75" font-family="Times,serif" font-size="10.00">LPAR</text>
<text xml:space="preserve" text-anchor="middle" x="509" y="-73.5" font-family="Times,serif" font-size="10.00">(</text>
</g>
<!-- n13&#45;&gt;n15 -->
<g id="edge15" class="edge">
<title>n13&#45;&gt;n15</title>
<path fill="none" stroke="black" d="M509,-129.78C509,-124.37 509,-118.24 509,-112.26"/>
<polygon fill="black" stroke="black" points="512.5,-112.71 509,-102.71 505.5,-112.71 512.5,-112.71"/>
</g>
<!-- n16 -->
<g id="node17" class="node">
<title>n16</title>
<path fill="#f8f8ff" stroke="black" d="M717.5,-101C717.5,-101 566.5,-101 566.5,-101 560.5,-101 554.5,-95 554.5,-89 554.5,-89 554.5,-77 554.5,-77 554.5,-71 560.5,-65 566.5,-65 566.5,-65 717.5,-65 717.5,-65 723.5,-65 729.5,-71 729.5,-77 729.5,-77 729.5,-89 729.5,-89 729.5,-95 723.5,-101 717.5,-101"/>
<text xml:space="preserve" text-anchor="middle" x="642" y="-84.75" font-family="Times,serif" font-size="10.00">pattern_string_sample__sample_literal</text>
<text xml:space="preserve" text-anchor="middle" x="642" y="-73.5" font-family="Times,serif" font-size="10.00">[1]</text>
</g>
<!-- n13&#45;&gt;n16 -->
<g id="edge16" class="edge">
<title>n13&#45;&gt;n16</title>
<path fill="none" stroke="black" d="M545.69,-129.62C560.96,-122.39 578.86,-113.91 595.07,-106.23"/>
<polygon fill="black" stroke="black" points="596.52,-109.42 604.06,-101.97 593.52,-103.09 596.52,-109.42"/>
</g>
<!-- n18 -->
<g id="node19" class="node">
<title>n18</title>
<path fill="#f8f8ff" stroke="black" d="M790,-101C790,-101 760,-101 760,-101 754,-101 748,-95 748,-89 748,-89 748,-77 748,-77 748,-71 754,-65 760,-65 760,-65 790,-65 790,-65 796,-65 802,-71 802,-77 802,-77 802,-89 802,-89 802,-95 796,-101 790,-101"/>
<text xml:space="preserve" text-anchor="middle" x="775" y="-84.75" font-family="Times,serif" font-size="10.00">RPAR</text>
<text xml:space="preserve" text-anchor="middle" x="775" y="-73.5" font-family="Times,serif" font-size="10.00">)</text>
</g>
<!-- n13&#45;&gt;n18 -->
<g id="edge18" class="edge">
<title>n13&#45;&gt;n18</title>
<path fill="none" stroke="black" d="M550.08,-141.87C594.42,-135.66 667.09,-123.54 737.02,-101.22"/>
<polygon fill="black" stroke="black" points="737.91,-104.61 746.33,-98.17 735.73,-97.96 737.91,-104.61"/>
</g>
<!-- n17 -->
<g id="node18" class="node">
<title>n17</title>
<path fill="#f8f8ff" stroke="black" d="M728.75,-36C728.75,-36 555.25,-36 555.25,-36 549.25,-36 543.25,-30 543.25,-24 543.25,-24 543.25,-12 543.25,-12 543.25,-6 549.25,0 555.25,0 555.25,0 728.75,0 728.75,0 734.75,0 740.75,-6 740.75,-12 740.75,-12 740.75,-24 740.75,-24 740.75,-30 734.75,-36 728.75,-36"/>
<text xml:space="preserve" text-anchor="middle" x="642" y="-19.75" font-family="Times,serif" font-size="10.00">pattern_string_sample__SAMPLE_STRING</text>
<text xml:space="preserve" text-anchor="middle" x="642" y="-8.5" font-family="Times,serif" font-size="10.00">&quot;sn&quot;</text>
</g>
<!-- n16&#45;&gt;n17 -->
<g id="edge17" class="edge">
<title>n16&#45;&gt;n17</title>
<path fill="none" stroke="black" d="M642,-64.78C642,-59.37 642,-53.24 642,-47.26"/>
<polygon fill="black" stroke="black" points="645.5,-47.71 642,-37.71 638.5,-47.71 645.5,-47.71"/>
</g>
</g>
</svg>
